<?xml version="1.0" encoding="UTF-8"?>
<svg version="1.1" xmlns="http://www.w3.org/2000/svg" xmlns:xlink="http://www.w3.org/1999/xlink">
    <defs></defs>
    <g id="Desktop:-PDP-Sale-Banner" stroke="none" stroke-width="1" fill="none" fill-rule="evenodd" transform="translate(-1163.000000, -181.000000)">
        <g id="Product-Info---Desktop" transform="translate(922.000000, 158.000000)" fill="#A18F7A">
            <g id="Product-Info---Default" transform="translate(3.000000, 10.000000)">
                <g id="Product-Selection" transform="translate(41.000000, 0.000000)">
                    <g id="Maker" transform="translate(159.000000, 0.000000)">
                        <path d="M127.562,19.3807547 L112.295,19.3807547 L121.888,15.7219553 C122.071,15.6531378 122.165,15.4414717 122.098,15.2506594 C122.032,15.0608898 121.829,14.962877 121.646,15.0316945 L110.242,19.3807547 L110.011,19.3807547 L117.92,14.0734624 C118.083,13.9639799 118.131,13.7356308 118.025,13.5656723 C117.921,13.3946711 117.704,13.3456647 117.538,13.4551471 L108.708,19.3807547 L108.208,19.3807547 L113.654,13.6251056 C113.791,13.4812144 113.789,13.2476518 113.65,13.1048033 C113.512,12.9640401 113.289,12.9661255 113.152,13.1079314 L107.216,19.3807547 L58.847,19.3807547 L52.911,13.1079314 C52.774,12.9661255 52.551,12.9629974 52.412,13.1048033 C52.273,13.2476518 52.272,13.4812144 52.409,13.6251056 L57.855,19.3807547 L57.354,19.3807547 L48.524,13.4551471 C48.359,13.344622 48.143,13.3946711 48.037,13.5656723 C47.932,13.7356308 47.979,13.9639799 48.143,14.0734624 L56.051,19.3807547 L55.82,19.3807547 L44.416,15.0316945 C44.232,14.962877 44.031,15.0608898 43.964,15.2506594 C43.897,15.4414717 43.992,15.6531378 44.174,15.7219553 L53.768,19.3807547 L38.5,19.3807547 C38.224,19.3807547 38,19.6143173 38,19.9020998 C38,20.1898822 38.224,20.4234448 38.5,20.4234448 L53.765,20.4234448 L44.174,24.0812015 C43.992,24.1500191 43.897,24.3616852 43.964,24.5524974 C44.017,24.7016021 44.152,24.7933588 44.295,24.7933588 C44.335,24.7933588 44.376,24.7871027 44.416,24.7714624 L55.817,20.4234448 L56.049,20.4234448 L48.143,25.7296945 C47.979,25.839177 47.932,26.0675261 48.037,26.2374846 C48.104,26.3480097 48.218,26.4064004 48.334,26.4064004 C48.399,26.4064004 48.465,26.3876319 48.524,26.3480097 L57.352,20.4234448 L57.854,20.4234448 L52.409,26.1780512 C52.272,26.3219425 52.273,26.555505 52.412,26.6983536 C52.481,26.7682138 52.57,26.8036653 52.66,26.8036653 C52.75,26.8036653 52.842,26.7671711 52.911,26.6952255 L58.846,20.4234448 L107.217,20.4234448 L113.152,26.6952255 C113.221,26.7671711 113.312,26.8036653 113.403,26.8036653 C113.492,26.8036653 113.582,26.7682138 113.65,26.6983536 C113.789,26.555505 113.791,26.3219425 113.654,26.1780512 L108.208,20.4234448 L108.71,20.4234448 L117.538,26.3480097 C117.597,26.3876319 117.664,26.4064004 117.729,26.4064004 C117.845,26.4064004 117.958,26.3480097 118.025,26.2374846 C118.131,26.0675261 118.083,25.839177 117.92,25.7296945 L110.013,20.4234448 L110.245,20.4234448 L121.646,24.7714624 C121.686,24.7871027 121.727,24.7933588 121.767,24.7933588 C121.911,24.7933588 122.046,24.7016021 122.098,24.5524974 C122.165,24.3616852 122.071,24.1500191 121.888,24.0812015 L112.297,20.4234448 L127.562,20.4234448 C127.838,20.4234448 128.062,20.1898822 128.062,19.9020998 C128.062,19.6143173 127.838,19.3807547 127.562,19.3807547" id="Arrow-Laurel---update"></path>
                    </g>
                </g>
            </g>
        </g>
    </g>
</svg>